<svg xmlns="http://www.w3.org/2000/svg" width="40" height="40" viewBox="0 0 40 40" fill="none"><path fill-rule="evenodd" clip-rule="evenodd" d="M27.7637 9.74679C28.9644 7.68876 30.627 5.43416 33.4903 1.98868C34.4024 0.901852 35.199 1.52588e-05 35.2452 1.52588e-05C35.3722 1.52588e-05 36.0188 2.1043 36.3189 3.49174C36.6999 5.24917 36.6999 8.20904 36.3189 9.59649C35.834 11.377 34.4601 13.8513 33.2594 15.1231L32.9015 15.4931L31.7816 14.3832L30.6616 13.2616L31.2851 12.3598C32.5897 10.5099 33.6288 7.51532 32.9707 7.51532C32.3473 7.51532 29.2531 9.319 28.1216 10.3365C27.7522 10.6833 27.452 10.8683 27.3481 10.8221C27.2095 10.7758 27.3019 10.5446 27.7637 9.74679ZM30.1767 9.45774C30.5231 9.2265 31.1927 8.85652 31.643 8.62528C32.4627 8.22061 32.6013 8.16279 32.6013 8.25529C32.6013 8.47497 32.0471 10.0243 31.77 10.5793C31.4352 11.2267 30.3153 12.9495 30.2229 12.9495C30.1887 12.9495 29.8958 12.7129 29.5441 12.4288L29.5302 12.4176C29.1723 12.1286 28.6758 11.7586 28.4334 11.5967C28.1794 11.4348 27.9831 11.2614 27.9831 11.2152C27.9831 11.088 29.4263 9.93178 30.1767 9.45774ZM22.1641 33.7611C21.0904 25.4943 23.6304 20.0717 29.1376 18.8923C30.2229 18.6611 32.2434 18.6958 33.2478 18.9617C34.1599 19.193 35.1759 19.6786 35.9033 20.2104C36.3536 20.5457 38.6627 23.4478 38.5588 23.5634C38.5241 23.5865 38.0161 23.4478 37.4273 23.2628C33.6866 22.0372 31.6892 21.6094 29.7034 21.6094C28.3294 21.6094 27.6367 21.7482 26.7015 22.2106C25.1313 22.9969 24.0922 24.7312 23.8844 26.9395C23.8036 27.8067 23.9652 29.3328 24.3001 30.7897L24.5425 31.7955L24.0461 32.5818C23.7805 33.0096 23.3071 33.8651 23.007 34.4895C22.9827 34.5408 22.9595 34.5902 22.9372 34.6375C22.7029 35.135 22.5744 35.4078 22.4832 35.3959C22.3723 35.3813 22.3164 34.9463 22.1927 33.9829C22.1835 33.9118 22.174 33.8379 22.1641 33.7611ZM27.833 25.4827C29.0453 25.0665 30.0151 24.0721 30.3615 22.8928C30.4654 22.5459 30.5808 22.2222 30.627 22.1875C30.7194 22.0835 33.2017 22.5228 33.3402 22.6616C33.4903 22.8119 32.7976 23.8178 31.8046 24.8815C31.389 25.3324 30.2691 26.3267 29.3108 27.1014C27.3365 28.6969 26.1012 29.8416 25.4777 30.6509C25.2468 30.9631 25.0159 31.2174 24.9697 31.2174C24.9235 31.2174 24.7734 30.6047 24.6349 29.8531C24.4271 28.7894 24.3924 28.2344 24.4271 27.2286C24.4617 26.5233 24.5425 25.818 24.6118 25.6446C24.7388 25.3324 24.7503 25.3324 25.1429 25.4943C25.6855 25.7255 27.1403 25.7139 27.833 25.4827ZM25.1544 24.3959C25.7086 23.3206 26.9555 22.465 28.3294 22.1991C28.6643 22.1297 29.1954 22.0835 29.5071 22.0835C29.8312 22.0835 29.9657 22.0835 30.0078 22.1459C30.0376 22.1902 30.0208 22.266 29.992 22.3956C29.5302 24.2224 27.7291 25.4364 25.8702 25.159C25.5932 25.1127 25.2699 25.0086 25.1544 24.9277C24.9697 24.789 24.9697 24.7658 25.1544 24.3959ZM22.6721 36.8828C22.8338 36.0619 23.2956 34.9057 23.9652 33.738C24.277 33.183 24.5771 32.6974 24.6349 32.6627C24.7388 32.6049 24.785 32.7321 25.1082 34.108C25.2006 34.4548 25.2699 35.322 25.2699 36.0157C25.2699 37.2297 25.2468 37.3338 24.8889 38.0622C24.4501 38.9524 23.8151 39.5652 23.0416 39.8196C22.4412 40.0277 21.1135 40.0624 20.6517 39.889L20.3399 39.7733L21.0211 39.2762C22.0256 38.5246 22.4874 37.8656 22.6721 36.8828Z" fill="#DD7550"></path><path d="M31.5045 1.71119C28.3872 3.72298 25.6278 6.46318 24.0922 9.08776C23.8613 9.49243 23.5958 9.82773 23.5265 9.82773C22.4897 9.57206 21.1991 9.42109 19.9265 9.40568V35.4347C20.4953 35.4364 21.0595 35.526 21.4483 35.7035L22.0025 35.9579L21.9332 35.5763C21.4021 32.9864 21.2867 28.8935 21.6677 26.8239C22.499 22.3494 24.6926 19.6554 28.3872 18.5455C29.2646 18.2911 29.6572 18.2449 30.9272 18.2333C32.5551 18.2217 33.548 18.3952 34.6448 18.9039C34.9797 19.0542 35.2568 19.1467 35.2568 19.1005C35.2568 18.9733 33.2017 16.5568 32.1972 15.5047C31.1004 14.36 29.5071 13.0073 28.0754 12.0014C27.0868 11.3104 26.7083 11.1005 26.6747 10.845C26.6498 10.656 26.8139 10.442 27.0594 9.98959C28.1563 7.96624 30.3961 4.8445 32.8207 1.98868C33.8409 0.780029 34.2603 0.296429 34.2013 0.228271C34.1581 0.178421 33.859 0.350838 33.3517 0.624363C32.7745 0.936539 31.9432 1.42214 31.5045 1.71119Z" fill="#DD7550"></path><path d="M33.4787 23.5981C32.8207 24.5809 31.4583 26.0377 30.3153 26.9511L27.5328 29.2519C26.8747 29.8184 25.4431 31.414 25.1775 31.8649C25.1313 31.9343 25.2352 32.5124 25.3969 33.1367C25.5585 33.7842 25.7202 34.8248 25.7663 35.5301L25.8472 36.7788L26.5399 35.9579C28.6874 33.3564 32.8899 30.0381 36.6076 27.9801C37.2888 27.6101 39.9702 26.1761 39.9702 26.1761C39.9702 26.1761 38.8821 26.1648 37.0117 24.523C35.7186 23.39 35.3722 23.1472 34.818 22.9853C34.773 22.9722 34.7278 22.9593 34.6832 22.9468C34.321 22.8448 33.9336 22.9666 33.7099 23.2693C33.6359 23.3695 33.5569 23.4806 33.4787 23.5981Z" fill="#DD7550"></path><path d="M25.1549 24.3978C25.7091 23.3225 26.956 22.4669 28.3299 22.201C28.6647 22.1316 29.1958 22.0854 29.5076 22.0854H29.5076C29.8317 22.0854 29.9662 22.0854 30.0082 22.1478C30.038 22.1921 30.0212 22.2679 29.9925 22.3975C29.5306 24.2243 27.7295 25.4383 25.8707 25.1609C25.5936 25.1146 25.2703 25.0106 25.1549 24.9296C24.9702 24.7909 24.9702 24.7678 25.1549 24.3978Z" fill="#F2F0E9"></path><path fill-rule="evenodd" clip-rule="evenodd" d="M12.2363 9.74679C11.0356 7.68876 9.373 5.43416 6.50971 1.98868C5.59761 0.901852 4.80097 1.52588e-05 4.75479 1.52588e-05C4.62779 1.52588e-05 3.98124 2.1043 3.68105 3.49174C3.30005 5.24917 3.30005 8.20904 3.68105 9.59649C4.16597 11.377 5.53988 13.8513 6.74062 15.1231L7.09853 15.4931L8.21844 14.3832L9.33836 13.2616L8.7149 12.3598C7.41026 10.5099 6.37116 7.51532 7.02926 7.51532C7.65272 7.51532 10.7469 9.319 11.8784 10.3365C12.2478 10.6833 12.548 10.8683 12.6519 10.8221C12.7905 10.7758 12.6981 10.5446 12.2363 9.74679ZM9.82327 9.45774C9.47691 9.2265 8.80727 8.85652 8.35699 8.62528C7.53726 8.22061 7.39871 8.16279 7.39871 8.25529C7.39871 8.47497 7.9529 10.0243 8.22999 10.5793C8.56481 11.2267 9.68473 12.9495 9.77709 12.9495C9.81128 12.9495 10.1042 12.7129 10.4559 12.4288L10.4698 12.4176C10.8277 12.1286 11.3242 11.7586 11.5666 11.5967C11.8206 11.4348 12.0169 11.2614 12.0169 11.2152C12.0169 11.088 10.5737 9.93178 9.82327 9.45774ZM17.8359 33.7611C18.9096 25.4943 16.3696 20.0717 10.8624 18.8923C9.77709 18.6611 7.75663 18.6958 6.75216 18.9617C5.84007 19.193 4.82406 19.6786 4.09669 20.2104C3.64642 20.5457 1.33731 23.4478 1.44122 23.5634C1.47586 23.5865 1.98386 23.4478 2.57268 23.2628C6.31343 22.0372 8.31081 21.6094 10.2966 21.6094C11.6706 21.6094 12.3633 21.7482 13.2985 22.2106C14.8687 22.9969 15.9078 24.7312 16.1156 26.9395C16.1964 27.8067 16.0348 29.3328 15.6999 30.7897L15.4575 31.7955L15.9539 32.5818C16.2195 33.0096 16.6929 33.8651 16.993 34.4895C17.0173 34.5408 17.0405 34.5902 17.0628 34.6375C17.2971 35.135 17.4256 35.4078 17.5168 35.3959C17.6277 35.3813 17.6836 34.9463 17.8073 33.9829C17.8165 33.9118 17.826 33.8379 17.8359 33.7611ZM12.167 25.4827C10.9547 25.0665 9.98491 24.0721 9.63854 22.8928C9.53463 22.5459 9.41918 22.2222 9.373 22.1875C9.28063 22.0835 6.79835 22.5228 6.6598 22.6616C6.50971 22.8119 7.20244 23.8178 8.19535 24.8815C8.61099 25.3324 9.73091 26.3267 10.6892 27.1014C12.6635 28.6969 13.8988 29.8416 14.5223 30.6509C14.7532 30.9631 14.9841 31.2174 15.0303 31.2174C15.0765 31.2174 15.2266 30.6047 15.3651 29.8531C15.5729 28.7894 15.6076 28.2344 15.5729 27.2286C15.5383 26.5233 15.4575 25.818 15.3882 25.6446C15.2612 25.3324 15.2497 25.3324 14.8571 25.4943C14.3145 25.7255 12.8597 25.7139 12.167 25.4827ZM14.8456 24.3959C14.2914 23.3206 13.0445 22.465 11.6706 22.1991C11.3357 22.1297 10.8046 22.0835 10.4929 22.0835C10.1688 22.0835 10.0343 22.0835 9.99224 22.1459C9.96242 22.1902 9.97924 22.266 10.008 22.3956C10.4698 24.2224 12.2709 25.4364 14.1298 25.159C14.4068 25.1127 14.7301 25.0086 14.8456 24.9277C15.0303 24.789 15.0303 24.7658 14.8456 24.3959ZM17.3279 36.8828C17.1662 36.0619 16.7044 34.9057 16.0348 33.738C15.723 33.183 15.4229 32.6974 15.3651 32.6627C15.2612 32.6049 15.215 32.7321 14.8918 34.108C14.7994 34.4548 14.7301 35.322 14.7301 36.0157C14.7301 37.2297 14.7532 37.3338 15.1111 38.0622C15.5499 38.9524 16.1849 39.5652 16.9584 39.8196C17.5588 40.0277 18.8865 40.0624 19.3483 39.889L19.6601 39.7733L18.9789 39.2762C17.9744 38.5246 17.5126 37.8656 17.3279 36.8828Z" fill="#DD7550"></path><path d="M8.49553 1.71119C11.6128 3.72298 14.3722 6.46318 15.9078 9.08776C16.1387 9.49243 16.4042 9.82773 16.4735 9.82773C17.5103 9.57206 18.8009 9.42109 20.0735 9.40568V35.4347C19.5047 35.4364 18.9405 35.526 18.5517 35.7035L17.9975 35.9579L18.0668 35.5763C18.5979 32.9864 18.7133 28.8935 18.3323 26.8239C17.501 22.3494 15.3074 19.6554 11.6128 18.5455C10.7354 18.2911 10.3428 18.2449 9.07281 18.2333C7.44489 18.2217 6.45198 18.3952 5.35516 18.9039C5.02034 19.0542 4.74324 19.1467 4.74324 19.1005C4.74324 18.9733 6.79835 16.5568 7.80281 15.5047C8.89963 14.36 10.4929 13.0073 11.9246 12.0014C12.9132 11.3104 13.2917 11.1005 13.3253 10.845C13.3502 10.656 13.1861 10.442 12.9406 9.98959C11.8437 7.96624 9.60391 4.8445 7.17935 1.98868C6.15913 0.780029 5.73969 0.296429 5.7987 0.228271C5.84186 0.178421 6.141 0.350838 6.64825 0.624363C7.22553 0.936539 8.0568 1.42214 8.49553 1.71119Z" fill="#DD7550"></path><path d="M6.52125 23.5981C7.17935 24.5809 8.54172 26.0377 9.68473 26.9511L12.4672 29.2519C13.1253 29.8184 14.5569 31.414 14.8225 31.8649C14.8687 31.9343 14.7648 32.5124 14.6031 33.1367C14.4415 33.7842 14.2798 34.8248 14.2337 35.5301L14.1528 36.7788L13.4601 35.9579C11.3126 33.3564 7.11007 30.0381 3.39242 27.9801C2.71123 27.6101 0.0297852 26.1761 0.0297852 26.1761C0.0297852 26.1761 1.11795 26.1648 2.98832 24.523C4.28142 23.39 4.62779 23.1472 5.18197 22.9853C5.22698 22.9722 5.27216 22.9593 5.31678 22.9468C5.67899 22.8448 6.06642 22.9666 6.29005 23.2693C6.36409 23.3695 6.44307 23.4806 6.52125 23.5981Z" fill="#DD7550"></path><path d="M14.8451 24.3978C14.2909 23.3225 13.044 22.4669 11.6701 22.201C11.3353 22.1316 10.8042 22.0854 10.4924 22.0854H10.4924C10.1683 22.0854 10.0338 22.0854 9.99178 22.1478C9.96196 22.1921 9.97878 22.2679 10.0075 22.3975C10.4694 24.2243 12.2705 25.4383 14.1293 25.1609C14.4064 25.1146 14.7297 25.0106 14.8451 24.9296C15.0298 24.7909 15.0298 24.7678 14.8451 24.3978Z" fill="#F2F0E9"></path></svg>